<svg xmlns="http://www.w3.org/2000/svg" width="30" height="30" viewBox="0 0 30 30"><defs><style>.a{fill:teal;}.b{fill:#fff;}</style></defs><g transform="translate(-120 -5530)"><circle class="a" cx="15" cy="15" r="15" transform="translate(120 5530)"/><g transform="translate(124.945 5534.945)"><path class="b" d="M147.3,5543.335l-2.609,2.608a4.711,4.711,0,0,1-.4,6.218l-2.151,2.151a4.72,4.72,0,0,1-6.675-6.675l2.151-2.151a4.717,4.717,0,0,1,6.216-.4l2.608-2.608a9.89,9.89,0,1,0,.857.857Z" transform="translate(-130 -5540)"/><path class="b" d="M150.281,5556.682a.606.606,0,0,0,.857,0l1.762-1.762a.606.606,0,1,0-.857-.857l-1.762,1.763A.605.605,0,0,0,150.281,5556.682Z" transform="translate(-140.161 -5547.019)"/></g></g></svg>