<svg xmlns="http://www.w3.org/2000/svg" width="693.848" height="573.88" viewBox="0 0 693.848 573.88"><g transform="translate(-613.076 -133.005)"><path d="M1182.635,664.909a279.921,279.921,0,0,1-21.659,26.618c-62.163,9.589-148.961,36.993-155.326-17.9a23.463,23.463,0,0,1,.082-9.588C1010.485,640.234,1121.793,667.761,1182.635,664.909Z" fill="#f2f2f2" style="mix-blend-mode:multiply;isolation:isolate"/><path d="M1192.191,650.747c-33.492,1.563-106.967-17.205-139.311-.407a9.371,9.371,0,0,1-1.586.732,42.184,42.184,0,0,1-4.228,1.484c-.163.041-.366.1-.549.143-.183.06-.366.1-.569.162q-.682.169-1.362.346c-.447.1-.915.2-1.383.305-.386.1-.792.183-1.2.264a11.435,11.435,0,0,0-1.3.264q-1.094.216-2.195.387c-.041,0-.082.02-.142.02-.773.142-1.566.264-2.379.386h-.04c-4.566.668-9.16,1.112-13.763,1.423a.5.5,0,0,1-.162.021c-1.119.081-2.277.162-3.456.223h-.041c-49.811,2.871-118.212,4.5-164.071-17.116-7.644.162-12.035.243-12.035.243-.569,0-1.117-.02-1.687-.04-.02-.021-.061-.041-.081-.061-3.029.061-4.676.1-4.676.1-.569,0-1.118-.02-1.687-.04-38.613,0-79.335-5.554-116.034-17.788-3.39-1-6.672-2.359-10.023-3.476-1.2-.447-2.4-.914-3.557-1.362-.284-.122-.549-.223-.834-.325-2.907-1.153-5.738-2.447-8.619-3.659a141.565,141.565,0,0,1-13.884-7.258c-.183-.121-.386-.223-.57-.345-2.114-1.305-4.158-2.7-6.179-4.147-.529-.406-1.037-.793-1.525-1.2a6.388,6.388,0,0,1-.589-.448q-1.134-.96-2.257-1.931c-.467-.407-.894-.833-1.321-1.26a25.344,25.344,0,0,1-3.72-4.269,5.361,5.361,0,0,1-.386-.569c-11.585-13.241,4.647-50.389,11-61.169.2-.487.386-.935.529-1.28-11.73-37.628-5.347-59.888-5.347-59.888,17.625,4.391,31.855,21.67,31.855,21.67,12.344-15.208,39.069-21.91,57.692-22.788-.264-28.7,6-34.464,6-34.464,48.632,15.538,11.333,40.925,64.068.088,4.44,82.032,27.292,227.616,144.793,191.983,103.522-31.393,84.291-233.164,80.955-308.973,73.03-15.98,147.2,9.535,191.269,75.312C1246.121,504.56,1234.068,584.842,1192.191,650.747Z" fill="#f2f2f2" style="mix-blend-mode:multiply;isolation:isolate"/><path d="M1259.214,541.014a94.187,94.187,0,0,1-33.034,39.62c-50.394,34.8-129.248,22.951-159.822,25.8-4.228.386-10.836.793-19.252,1.2q-2.531.123-5.3.244c-8.416.387-18.3.773-29.09,1.139-53.382,1.87-129.858,3.68-171.1,4.574-17.788.406-29.009.63-29.009.63-.569,0-1.119-.021-1.688-.041-.487,0-.976-.02-1.463-.041-46.268-1.036-86.091-8.375-115.608-18.072-18.621-6.139-33.156-13.213-42.629-20.246a48.31,48.31,0,0,1-8.05-7.339,30.831,30.831,0,0,1-2.135-2.867c-.264-.406-.487-.792-.711-1.2-11.4-20.816,11.506-58.5,12.665-60.395.02-.021.02-.021.02-.042v-.02l.02-.02c-11.851-37.77-5.428-60.132-5.428-60.132,17.625,4.392,31.855,21.67,31.855,21.67a39.569,39.569,0,0,1,9.29-8.151,64.227,64.227,0,0,1,9.555-5.143,94.112,94.112,0,0,1,11.119-4.086,141.212,141.212,0,0,1,17.1-4c6.342-1.078,10.631-1.4,10.631-1.4-.264-28.7,8.62-40.392,8.62-40.392,12.725,4.065,23.642,33.542,28.216,33.277,3.618-.183,9.351-10.611,53.077-42.059,3.07-2.216,6.322-4.513,9.778-6.952,8.477-5.916,18.153-12.5,29.233-19.8,1.463-.955,2.947-1.93,4.471-2.927,2.4-1.565,4.819-3.13,7.258-4.675,9.412-6,19.088-11.872,28.989-17.524q6.708-3.841,13.559-7.521c7.44-4.005,15-7.867,22.666-11.526q5.548-2.653,11.16-5.163,10-4.483,20.207-8.5,13.72-5.367,27.748-9.7c10.062-3.09,20.206-5.732,30.452-7.846a.382.382,0,0,1,.162-.021c.712-.163,1.444-.3,2.155-.447a270.922,270.922,0,0,1,46.756-5.306c.955-.04,1.89-.06,2.846-.081a228.4,228.4,0,0,1,32.851,1.871,216.955,216.955,0,0,1,45.251,10.712c32,11.3,57.021,34.294,74.91,62.572a203.586,203.586,0,0,1,15.307,29.313q2.623,6.129,4.839,12.4a230.641,230.641,0,0,1,12.664,58.587C1272.773,490.6,1269.093,518.937,1259.214,541.014Z" fill="#ffedca"/><path d="M1252.038,554.248a94.092,94.092,0,0,1-7.542,10.022c-47.04,54.561-143.519,38.949-178.138,42.161-4.228.386-10.836.793-19.252,1.2q-2.531.123-5.3.244c-8.416.387-18.3.773-29.09,1.139-53.382,1.87-129.858,3.68-171.1,4.574-17.788.406-29.009.63-29.009.63-.569,0-1.119-.021-1.688-.041-.487,0-.976-.02-1.463-.041-46.268-1.036-86.091-8.375-115.608-18.072-18.621-6.139-33.156-13.213-42.629-20.246a48.31,48.31,0,0,1-8.05-7.339,30.831,30.831,0,0,1-2.135-2.867c-6.119-21.324,12.439-63.137,12.439-63.137-11.851-37.771-3.169-52.572-3.169-52.572,17.625,4.391,31.855,21.67,31.855,21.67a39.552,39.552,0,0,1,9.29-8.152,64.125,64.125,0,0,1,9.555-5.143,93.971,93.971,0,0,1,11.119-4.086,141.171,141.171,0,0,1,17.1-4c6.343-1.078,10.632-1.4,10.632-1.4-.264-28.7,7.7-40.265,7.7-40.265,12.726,4.065,24.557,33.414,29.131,33.15,3.619-.183,9.351-10.612,53.078-42.059,3.07-2.216,6.322-4.514,9.778-6.953,8.477-5.916,18.153-12.5,29.232-19.8,1.464-.955,2.948-1.931,4.473-2.927,2.4-1.565,4.817-3.131,7.256-4.675,9.413-6,19.089-11.872,28.989-17.524q6.708-3.841,13.559-7.521c11.038-5.936,22.341-11.547,33.826-16.69q10-4.483,20.207-8.5,13.722-5.367,27.749-9.7a336.517,336.517,0,0,1,32.769-8.315,272.159,272.159,0,0,1,49.6-5.386,228.374,228.374,0,0,1,32.85,1.87,216.93,216.93,0,0,1,45.251,10.713c32,11.3,57.022,34.294,74.91,62.571a199.517,199.517,0,0,1,12.6,23.215C1277.266,447.361,1277.286,515.6,1252.038,554.248Z" fill="#ffd67b"/><path d="M1306.924,563.741c0,73.183-70.478,103.675-164.66,121.28-82.492,15.429-120.812,4.37-125.426-16.832a23.838,23.838,0,0,1,.061-9.6c5.427-27.1,104.346-13.539,166.693-21s94.182-29.822,98.248-74.545-11.506-75.215-11.506-75.215l-.631-30.615-.061-3.252S1306.924,490.559,1306.924,563.741Z" fill="#f3be65"/><path d="M1292.695,547.478c0,73.183-71.486,107.624-165.667,125.228-54.927,10.287-106.087,10.52-110.19-4.517a23.838,23.838,0,0,1,.061-9.6c5.427-27.1,104.346-13.539,166.693-21s94.182-29.822,98.248-74.545-11.506-75.215-11.506-75.215l-.631-30.615c1.037,1.749,2.074,3.6,3.131,5.591C1282.551,481.065,1292.695,509.281,1292.695,547.478Z" fill="#ffd67b"/><path d="M1298.109,564.073c0,73.183-69.8,91.153-163.983,108.758-54.927,10.286-96.35,4.729-115.195-3.666a26.552,26.552,0,0,1,.509-6c5.427-27.1,104.346-13.539,166.693-21s94.182-29.823,98.247-74.545-13.424-81.01-13.424-81.01l-1.285-32.42C1293.111,478.207,1298.109,525.1,1298.109,564.073Z" fill="#ffd67b"/><path d="M862.4,443.112c-10.367-26.244-24.251-41.226-35.351-49.6,3.07-2.216,6.322-4.513,9.778-6.952C857.035,410.445,862.4,443.112,862.4,443.112Z" fill="#f3be65"/><path d="M906.861,424.817c-11.933-30.249-27.809-47.935-40.8-58.059,1.463-.955,2.947-1.93,4.471-2.927,2.4-1.565,4.819-3.13,7.258-4.675C900.722,387.412,906.861,424.817,906.861,424.817Z" fill="#f3be65"/><path d="M952.275,403.147c-13.417-33.989-31.794-52.1-45.495-61.515q6.708-3.841,13.559-7.521C945.607,362.673,952.275,403.147,952.275,403.147Z" fill="#f3be65"/><path d="M1016.8,398c-18.743-47.406-45.17-70.134-62.632-80.582q10-4.483,20.207-8.5C1007.426,344.093,1016.492,396.113,1016.8,398Z" fill="#f3be65"/><path d="M1091.89,409.184c-27.484-69.564-67.633-98.633-89.77-109.957a336.294,336.294,0,0,1,32.769-8.314C1079.348,337.038,1091.464,406.663,1091.89,409.184Z" fill="#f3be65"/><path d="M1145.171,405.4c-12.238-66.149-40.8-102.13-60.68-119.877a228.4,228.4,0,0,1,32.851,1.871C1147.123,340.779,1145.171,405.4,1145.171,405.4Z" fill="#f3be65"/><path d="M809.447,614.135c-85.6-1.931-149.11-25.349-166.287-45.657l9.351-8.986s.163,4.758,12.36,7.116c12.2,2.378.182-24.394,7.115-34.051,6.952-9.656,22.544-16.771,36.936-3.212s17.036,67.837,97.333,62.267Z" fill="#f3be65"/><path d="M1252.038,554.248a94.092,94.092,0,0,1-7.542,10.022c-47.04,54.561-143.519,38.949-178.138,42.161-4.228.386-10.836.793-19.252,1.2q-2.531.123-5.3.244c-8.416.387-18.3.773-29.09,1.139-53.382,1.87-129.858,3.68-171.1,4.574-17.788.406-29.009.63-29.009.63-.569,0-1.119-.021-1.688-.041-.487,0-.976-.02-1.463-.041-46.268-1.036-86.091-8.375-115.608-18.072,9.839.9,65.437,5.672,106.053,2.908,44.723-3.05,152.972-101.134,234.286-84.364s255.122-41.673,205.317-149.414c-.711-1.524-1.382-3.028-1.992-4.512C1276.473,422.214,1281.758,508.733,1252.038,554.248Z" fill="#f3be65"/><path d="M1019.148,609.013c-76.414,2.683-200.113,5.2-200.113,5.2-.569,0-1.118-.021-1.688-.041-19.941-15.124-19.25-46.979,3.558-60.7,14.027-8.437,32.892-15.389,55.558-13.458,51.837,4.411,60.985,47.426,106.379,56.574C1002.6,600.576,1013.294,604.8,1019.148,609.013Z" fill="#f3be65"/><path d="M1041.8,607.874c-8.416.387-18.3.773-29.09,1.139-53.382,1.87-129.858,3.68-171.1,4.574-24.212-13.6-25.045-48.85-.712-63.486,14.026-8.436,32.891-15.389,55.558-13.478,51.837,4.412,60.985,47.447,106.378,56.6C1026.067,597.893,1036.78,602.935,1041.8,607.874Z" fill="#f3be65"/><path d="M1033.324,620.315c.142,1.708-1.2,3.253-3.822,4.615-6.24,3.293-19.739,5.53-37.608,6.322a392.055,392.055,0,0,1-40.209-.427c-31.022-1.809-86.254-.447-120.995-17.035-19.536-9.331-25.532-32-17.2-49.256a36.208,36.208,0,0,1,14.189-15.45c14.027-8.436,32.892-15.388,55.558-13.478,51.838,4.412,60.986,47.448,106.379,56.595,1.4.285,2.744.569,4.066.833C1034.889,602,1032.673,612.1,1033.324,620.315Z" fill="#ffedca"/><path d="M1029.5,624.93a9,9,0,0,1-1.26.61c-.448.183-.915.386-1.423.569-.732.3-1.545.569-2.419.834-.59.162-1.2.345-1.83.508-1.362.366-2.845.711-4.452,1.016-.508.1-1.016.2-1.545.3-3.659.671-7.846,1.22-12.481,1.646-1.728.163-3.537.3-5.408.448-1.158.081-2.337.163-3.537.223-1.057.061-2.155.123-3.253.163a392.055,392.055,0,0,1-40.209-.427c-31.022-1.809-86.254-.447-120.995-17.035-19.536-9.331-25.532-32-17.2-49.256a37.036,37.036,0,0,1,10.469-9.351c14.027-8.436,32.892-15.389,55.558-13.478C931.356,546.117,940.5,589.152,985.9,598.3c1.4.284,2.744.569,4.065.833,2.3.508,4.473,1.017,6.505,1.5C1028.77,608.688,1029.075,617.47,1029.5,624.93Z" fill="#ffd67b"/><path d="M1254.5,482.082c0,33.318-3.72,60.762-10,82.188-47.04,54.561-143.519,38.949-178.138,42.161-4.228.386-10.836.793-19.252,1.2a29.379,29.379,0,0,1,3.579-12.217c5.61-10.672,66.067-13.214,62.53-21.345-3.578-8.131-30.493-12.705-30.493-66.575,0-1.118,0-2.237.041-3.334,1.321-41.267,33.826-74.911,74.91-78.956C1196.419,421.4,1254.5,425.183,1254.5,482.082Z" fill="#f3be65"/><path d="M1271,482.1c0,2.273-.041,4.505-.083,6.737-.041,2.191-.124,4.382-.247,6.531-3.183,64.809-29.222,105.646-51.129,120.236a43.175,43.175,0,0,1-6.324,3.472c-.537.206-1.033.413-1.57.62-.785.289-1.571.537-2.356.785-.91.248-1.777.5-2.687.661a.917.917,0,0,1-.289.042,207.259,207.259,0,0,1-22.526,3.306c-.166,0-.331.041-.5.041-25.337,2.356-54.931,1.9-85.6,1.9a71.034,71.034,0,0,1-19.468-2.274c-19.3-5.579-18.641-17.07-11.036-28.726,7.647-11.7,66.091-13.226,62.536-21.368s-30.5-12.689-30.5-66.586c0-1.117.041-2.233.083-3.307,1.281-41.291,33.768-74.936,74.853-78.945,19.632-1.942,44.142-1.942,63.569,5.91h.041a60.532,60.532,0,0,1,14.053,7.854q1.737,1.363,3.348,2.852c.909.826,1.777,1.653,2.6,2.562.826.868,1.653,1.819,2.4,2.77.7.909,1.405,1.818,2.025,2.769a3.423,3.423,0,0,1,.331.5c.5.744.951,1.488,1.405,2.232a41.664,41.664,0,0,1,2.356,4.711,27.061,27.061,0,0,1,1.2,3.018.548.548,0,0,1,.124.289,38.036,38.036,0,0,1,1.2,3.844c.371,1.323.661,2.645.95,4.009,0,.083.041.166.041.249.166.785.29,1.611.414,2.438s.248,1.695.331,2.562A76.407,76.407,0,0,1,1271,482.1Z" fill="#ffedca"/><path d="M1271,482.1c0,2.273-.041,4.505-.083,6.737-.041,2.191-.124,4.382-.247,6.531-3.183,64.809-29.222,105.646-51.129,120.236a43.175,43.175,0,0,1-6.324,3.472c-.537.206-1.033.413-1.57.62-.785.289-1.571.537-2.356.785-.91.248-1.777.5-2.687.661a.917.917,0,0,1-.289.042c-1.736.495,5.084.248,2.191.661-7.44,1.157-15.789,2.025-24.717,2.645-.166,0-.331.041-.5.041-26.618,1.9-58.072,1.9-85.6,1.9a71.034,71.034,0,0,1-19.468-2.274c-13.764-6.489-10.25-19.219-6.2-26.989,5.622-10.623,66.049-13.185,62.536-21.328-3.6-8.142-30.5-12.689-30.5-66.545,0-1.116.041-2.273.082-3.348,1.282-41.291,33.769-74.894,74.853-78.986,18.021-1.736,40.176-1.86,58.734,4.174h.041a60.532,60.532,0,0,1,14.053,7.854q1.737,1.363,3.348,2.852c.909.826,1.777,1.653,2.6,2.562.826.868,1.653,1.819,2.4,2.77.7.909,1.405,1.818,2.025,2.769a3.423,3.423,0,0,1,.331.5c.5.744.951,1.488,1.405,2.232a41.664,41.664,0,0,1,2.356,4.711,27.061,27.061,0,0,1,1.2,3.018.548.548,0,0,1,.124.289,38.036,38.036,0,0,1,1.2,3.844c.371,1.323.661,2.645.95,4.009,0,.083.041.166.041.249.166.785.29,1.611.414,2.438s.248,1.695.331,2.562A76.407,76.407,0,0,1,1271,482.1Z" fill="#ffd67b"/><path d="M651.21,575.817a48.31,48.31,0,0,1-8.05-7.339,25.179,25.179,0,0,1-2.846-4.066c-11.4-20.816,11.506-58.5,12.665-60.395-.732,1.869-14.82,37.566-.468,55.475C656.963,565.063,655.479,570.673,651.21,575.817Z" fill="#f3be65"/><path d="M656.322,494.279s-5.844-27.189-3.557-40.911c0,0,12.2,2.287,20.329,16.771C673.094,470.139,658.356,487.418,656.322,494.279Z" fill="#f3be65"/><path d="M747.8,410.17s-6.1,21.6-4.828,33.542c0,0,17.025-3.812,25.665-3.049C768.638,440.663,758.473,419.318,747.8,410.17Z" fill="#f3be65"/><path d="M652.586,534.724a13.147,13.147,0,0,1,1.008-4.517,16.843,16.843,0,0,1,.959-2.047,14.953,14.953,0,0,1,1.39-2.138,17.743,17.743,0,0,1,1.832-2.073,18.627,18.627,0,0,1,2.288-1.792,13.1,13.1,0,0,1,2.62-1.332,10.363,10.363,0,0,1,2.749-.76,10.008,10.008,0,0,1,2.637-.163,11.932,11.932,0,0,1,1.205.069l1.1.249a9.538,9.538,0,0,1,1.852.541c.528.229.971.469,1.33.657.718.388,1.1.641,1.1.641s-.481.075-1.268.149c-.393.031-.863.081-1.383.092s-1.111.2-1.725.252a10,10,0,0,0-1.935.4,11.665,11.665,0,0,0-2.033.612c-.338.136-.686.252-1.035.371l-1.008.5a15.326,15.326,0,0,0-1.992,1.131c-.671.381-1.26.914-1.9,1.344-.572.533-1.22.967-1.754,1.515-.568.509-1.11,1.022-1.606,1.54-.527.493-.975,1.012-1.44,1.464Z" fill="#894d16"/><path d="M697,516.04a8.447,8.447,0,0,1,.98-1.282,12.044,12.044,0,0,1,1.348-1.281,13.4,13.4,0,0,1,1.985-1.411,17.548,17.548,0,0,1,5.758-2.179,21.288,21.288,0,0,1,3.5-.39,27.312,27.312,0,0,1,3.612.284,22.15,22.15,0,0,1,3.487.875,21.1,21.1,0,0,1,3.179,1.325c.985.508,1.924,1.029,2.769,1.576.824.579,1.572,1.169,2.252,1.715a11.488,11.488,0,0,1,1.752,1.6c.5.5.9.971,1.24,1.349.665.764,1.013,1.224,1.013,1.224s-.564-.194-1.493-.573c-.95-.344-2.167-1.036-3.728-1.611-.774-.3-1.6-.627-2.442-1.017-.87-.329-1.814-.584-2.735-.96-.914-.416-1.949-.511-2.921-.848a30.785,30.785,0,0,0-3.022-.646c-1.012-.194-2.038-.231-3.042-.359-1,.037-2.008-.139-2.964-.005a27.678,27.678,0,0,0-2.793.272c-.882.152-1.732.315-2.512.5A28.818,28.818,0,0,0,697,516.04Z" fill="#894d16"/><path d="M680.083,533.952a3.54,3.54,0,0,0-.611,4.687c2.051,2.989,6.584,7.508,9.772,6.575s4.324-10.539,3.168-12.777S685.107,529.711,680.083,533.952Z" fill="#894d16"/><rect width="2.031" height="13.26" transform="translate(687.579 543.254) rotate(-23.227)" fill="#894d16"/><path d="M679.329,550.732a21.266,21.266,0,0,0,4.18,2.937,18.218,18.218,0,0,0,5.006,1.883,10.614,10.614,0,0,0,3.159.167,3.251,3.251,0,0,0,.528-.073l.359-.1a6.788,6.788,0,0,0,.734-.235,8.416,8.416,0,0,0,1.579-.928,13.529,13.529,0,0,0,2.292-2.26,19.805,19.805,0,0,0,1.749-2.453,32.915,32.915,0,0,0,2.417-4.658,34.445,34.445,0,0,0,1.66-4.809l-.739,1.183c-.447.761-1.155,1.811-1.952,3.08-.812,1.262-1.775,2.715-2.866,4.2-.535.747-1.141,1.479-1.76,2.185a11.763,11.763,0,0,1-2.015,1.906,8.55,8.55,0,0,1-.977.658,5.522,5.522,0,0,1-.686.238l-.356.114c.124-.029-.153.012-.21.015a10.622,10.622,0,0,1-2.637.015,25,25,0,0,1-4.816-1.182c-1.4-.492-2.578-.938-3.376-1.308Z" fill="#894d16"/><path d="M645.366,385.656l2.694,6.185-7.5,23.423,15.451-6.732,3.391,7.783-28.217,12.292-2.692-6.18,7.5-23.427-14.366,6.258-3.415-7.838Z" fill="teal"/><path d="M687.989,308.828l.7,6.71L674.456,335.6l16.764-1.745.879,8.444-30.612,3.186-.7-6.7,14.23-20.064-15.585,1.622-.885-8.5Z" fill="teal"/><g opacity="0.58"><path d="M635.547,237.715l.534,5.121-10.863,15.311,12.8-1.332.671,6.446-23.367,2.432-.532-5.117,10.862-15.316-11.9,1.239-.675-6.492Z" fill="teal"/></g><g opacity="0.39"><path d="M695.934,168.849l-.918,3.721-11.47,7.985,9.3,2.294-1.155,4.684-16.981-4.189.918-3.719,11.471-7.988-8.645-2.133,1.164-4.717Z" fill="teal"/></g><g opacity="0.15"><path d="M631.013,133.005l1.229,3.631-5.368,12.9,9.07-3.072,1.547,4.57-16.565,5.608-1.228-3.628,5.368-12.906-8.434,2.855-1.558-4.6Z" fill="teal"/></g></g></svg>